<svg width="484" height="426" viewBox="0 0 484 426" fill="none" xmlns="http://www.w3.org/2000/svg">
<g clip-path="url(#clip0_11_511)">
<path d="M251.295 415.387C320.445 415.387 376.503 413.386 376.503 410.918C376.503 408.45 320.445 406.449 251.295 406.449C182.144 406.449 126.086 408.45 126.086 410.918C126.086 413.386 182.144 415.387 251.295 415.387Z" fill="#3F3D56"/>
<path d="M192.928 211.212C217.671 211.212 237.73 191.164 237.73 166.433C237.73 141.703 217.671 121.655 192.928 121.655C168.185 121.655 148.126 141.703 148.126 166.433C148.126 191.164 168.185 211.212 192.928 211.212Z" fill="#FF6584"/>
<path d="M140.143 399.194C160.997 399.194 177.902 397.636 177.902 395.715C177.902 393.794 160.997 392.236 140.143 392.236C119.288 392.236 102.383 393.794 102.383 395.715C102.383 397.636 119.288 399.194 140.143 399.194Z" fill="#3F3D56"/>
<path d="M208.932 411.224C208.932 411.224 240.272 327.694 222.995 276.291C205.718 224.888 192.057 226.896 192.057 226.896C192.057 226.896 168.753 220.872 139.824 238.542C110.895 256.212 103.261 261.432 86.7873 254.204C70.3138 246.975 67.0994 235.731 26.9201 236.936C26.9201 236.936 48.2152 225.29 69.1084 235.731C90.0017 246.172 104.064 251.794 125.359 235.731C146.654 219.667 175.985 198.785 204.513 211.234C204.513 211.234 183.619 190.753 176.789 190.753C169.959 190.753 137.815 187.541 127.368 176.698C127.368 176.698 112.502 166.257 85.9838 191.958C59.4654 217.66 65.8941 217.66 42.1883 215.652C18.4825 213.644 0 201.998 0 201.998C0 201.998 27.7237 213.242 44.599 207.62C61.4744 201.998 75.9389 180.714 90.8053 173.485C105.672 166.257 114.511 156.618 134.601 167.06C134.601 167.06 126.163 132.523 110.091 135.334C94.0196 138.146 117.725 127.303 117.725 127.303C117.725 127.303 113.306 68.6712 104.868 64.6554C96.4304 60.6395 101.654 50.1983 85.9837 48.1904C85.9837 48.1904 105.27 45.7808 108.886 59.0331C112.502 72.2855 137.413 143.768 137.413 143.768C137.413 143.768 152.681 174.288 169.557 167.06C186.432 159.831 163.128 119.271 163.128 119.271L134.199 106.019C134.199 106.019 155.896 105.216 169.155 117.665C182.414 130.114 183.218 170.272 183.218 170.272C183.218 170.272 216.567 175.091 224.602 193.163C224.602 193.163 229.826 177.099 219.781 167.461C217.27 165.052 214.633 160.86 212.09 155.928C202.367 137.067 199.068 115.568 202.127 94.5717C203.624 84.2972 204.545 74.2511 202.906 71.8839C199.289 66.6633 184.021 34.5364 182.816 26.1031C181.61 17.6698 184.021 6.10352e-05 184.021 6.10352e-05C184.021 6.10352e-05 184.423 21.6857 189.245 28.5126C194.066 35.3396 207.727 69.0728 207.727 69.0728C207.727 69.0728 207.727 111.641 218.977 132.523C230.227 153.406 251.924 176.698 250.719 191.958V200.793C250.719 200.793 274.827 177.903 273.219 170.272C271.612 162.642 269.603 144.571 254.335 133.728C239.067 122.885 229.022 105.617 239.871 80.7188C250.719 55.8205 250.719 51.403 250.719 51.403L243.487 82.3251C243.487 82.3251 239.469 110.035 250.719 119.673C261.969 129.311 276.835 146.98 276.835 146.98L273.621 89.1521L284.068 112.042C284.068 112.042 306.568 83.1283 333.087 73.4902C359.605 63.8522 376.078 30.119 376.078 30.119L398.579 12.4492L380.096 34.5364C380.096 34.5364 374.471 60.6395 342.73 79.1124C310.988 97.5854 290.496 124.893 289.291 141.76C288.086 158.626 286.88 173.485 286.88 173.485C286.88 173.485 346.346 171.477 359.605 145.374C372.864 119.271 374.069 67.4665 386.927 59.0332C399.784 50.5999 423.892 40.1586 423.892 40.1586L396.972 62.2458C396.972 62.2458 391.347 80.3172 392.552 93.1679C393.757 106.019 383.712 118.066 383.712 118.066L376.078 140.555L367.641 159.831C367.641 159.831 402.195 160.634 420.276 181.115C438.356 201.596 483.357 207.62 483.357 207.62L458.044 214.447C458.044 214.447 433.937 206.415 411.034 191.556C388.132 176.698 390.543 163.445 362.016 178.304C333.488 193.163 294.514 205.612 294.514 205.612C294.514 205.612 317.015 195.171 357.596 220.471C398.177 245.77 337.506 216.053 319.426 225.691C301.345 235.329 292.907 223.282 285.675 247.377C278.443 271.472 265.183 337.332 280.452 374.278L295.72 411.224H208.932Z" fill="#3F3D56"/>
<path opacity="0.1" d="M360.214 145.374C349.442 166.581 308.172 171.884 293.069 173.127C292.645 178.571 292.366 182.014 292.366 182.014C292.366 182.014 351.832 180.006 365.091 153.903C378.35 127.8 379.555 75.9954 392.413 67.5621C393.776 66.6677 395.267 65.7507 396.842 64.8259C397.283 63.2051 397.581 62.2458 397.581 62.2458L424.501 40.1586C424.501 40.1586 400.394 50.5998 387.536 59.0331C374.679 67.4664 373.474 119.271 360.214 145.374Z" fill="black"/>
<path opacity="0.1" d="M290.925 104.803C290.838 114.691 289.554 120.571 289.554 120.571C289.554 120.571 312.045 91.6696 338.556 82.0254C340.123 81.0347 341.712 80.0593 343.339 79.1124C375.081 60.6394 380.706 34.5364 380.706 34.5364L399.188 12.4492L376.688 30.1189C376.688 30.1189 360.214 63.8521 333.696 73.4902C315.62 80.0599 299.414 95.5836 290.925 104.803Z" fill="black"/>
<path opacity="0.1" d="M256.205 200.487V209.322C256.205 209.322 280.312 186.431 278.705 178.801C277.476 172.966 276.004 161.026 268.554 150.881C271.913 158.548 272.935 166.027 273.829 170.272C274.981 175.744 262.911 189.062 255.989 196.16C256.232 197.589 256.304 199.041 256.205 200.487Z" fill="black"/>
<path opacity="0.1" d="M223.867 139.857C224.058 140.264 224.254 140.665 224.463 141.052C230.624 152.489 239.913 164.646 246.863 175.813C241.246 164.754 231.471 152.108 223.867 139.857Z" fill="black"/>
<path opacity="0.1" d="M243.455 122.761C240.215 114.826 239.681 105.384 243.403 94.3203C243.357 90.3107 243.588 86.3027 244.096 82.3251L250.423 55.2752C249.256 59.1761 246.588 66.7015 240.48 80.7188C232.748 98.4641 235.634 112.331 243.455 122.761Z" fill="black"/>
<path opacity="0.1" d="M420.885 181.115C408.346 166.912 387.888 162.173 376.522 160.602L373.127 168.36C373.127 168.36 407.681 169.163 425.761 189.644C435.788 201.002 454.091 207.912 468.409 211.816L483.967 207.62C483.967 207.62 438.966 201.596 420.885 181.115Z" fill="black"/>
<path opacity="0.1" d="M175.042 175.589C191.918 168.36 168.614 127.8 168.614 127.8L167.976 127.508C173.786 139.76 182.212 161.9 170.166 167.06C158.895 171.888 148.341 159.876 142.575 151.365C142.784 151.967 142.899 152.297 142.899 152.297C142.899 152.297 158.167 182.817 175.042 175.589Z" fill="black"/>
<path opacity="0.1" d="M230.088 201.692C230.088 201.692 235.173 186.026 225.62 176.354C227.963 184.686 225.212 193.163 225.212 193.163C218.996 179.183 197.635 173.135 188.279 171.113C188.642 175.767 188.703 178.801 188.703 178.801C188.703 178.801 222.052 183.62 230.088 201.692Z" fill="black"/>
<path opacity="0.1" d="M250.423 55.2752C251.328 52.2471 251.329 51.403 251.329 51.403L250.423 55.2752Z" fill="black"/>
<path opacity="0.1" d="M49.841 216.226C49.922 216.2 50.0043 216.176 50.0848 216.149C66.9601 210.527 81.4247 189.243 96.2911 182.014C111.157 174.786 119.997 165.147 140.086 175.589C140.086 175.589 136.572 161.21 129.761 151.763C132.017 156.695 133.84 161.813 135.21 167.06C115.121 156.618 106.281 166.257 91.4148 173.485C76.5485 180.714 62.0839 201.998 45.2086 207.62C28.3333 213.242 0.609558 201.998 0.609558 201.998C0.609558 201.998 19.092 213.644 42.7978 215.652C45.5096 215.881 47.8235 216.084 49.841 216.226Z" fill="black"/>
<path opacity="0.1" d="M217.353 411.224C224.715 388.667 242.42 326.292 228.481 284.82C222.461 266.91 216.882 255.489 212.165 248.203C215.692 255.1 219.549 264.223 223.605 276.291C240.882 327.694 209.542 411.224 209.542 411.224H217.353Z" fill="black"/>
<path opacity="0.1" d="M60.4419 240.166C65.3679 240.665 70.1627 242.053 74.5942 244.26C91.095 252.506 103.338 257.736 118.245 251.662C121.641 249.869 125.44 247.65 129.82 245.008C130.162 244.759 130.5 244.52 130.845 244.26C152.14 228.196 181.471 207.314 209.998 219.763C209.998 219.763 204.233 214.113 197.77 208.748C171.623 202.337 145.438 221.045 125.969 235.731C104.674 251.794 90.6113 246.172 69.718 235.731C48.8247 225.29 27.5297 236.936 27.5297 236.936C43.0539 236.47 53.0573 237.864 60.4419 240.166Z" fill="black"/>
<path opacity="0.1" d="M101.225 60.7568C101.684 61.5282 102.239 62.2377 102.878 62.8681C102.408 62.1041 101.854 61.3958 101.225 60.7568Z" fill="black"/>
<path opacity="0.1" d="M174.641 126.194C175.262 126.781 175.844 127.408 176.383 128.071C174.622 123.842 172.449 120.185 169.764 117.665C156.505 105.215 134.808 106.019 134.808 106.019L162.019 118.484C166.681 120.222 170.966 122.84 174.641 126.194Z" fill="black"/>
<path opacity="0.1" d="M203.515 71.8839C205.155 74.2511 204.233 84.2972 202.737 94.5716C199.678 115.568 202.976 137.067 212.7 155.928C213.98 158.459 215.409 160.912 216.981 163.274C207.722 144.699 204.618 123.659 207.613 103.101C209.11 92.8262 210.031 82.7801 208.391 80.4129C204.775 75.1923 189.507 43.0654 188.302 34.6321C187.94 31.3604 187.856 28.064 188.05 24.7781C184.929 15.9271 184.631 0 184.631 0C184.631 0 182.22 17.6698 183.425 26.1031C184.631 34.5363 199.899 66.6632 203.515 71.8839Z" fill="black"/>
<path opacity="0.1" d="M241.209 16.3661C241.048 15.5724 240.804 14.7979 240.48 14.0555C240.48 14.0555 240.789 14.9223 241.209 16.3661Z" fill="black"/>
<path opacity="0.1" d="M99.2943 56.811C102.835 57.2443 106.909 58.3302 110.016 60.8486C109.813 60.1635 109.636 59.5493 109.495 59.0331C105.879 45.7808 86.5933 48.1903 86.5933 48.1903C95.3089 49.3071 97.5601 53.033 99.2943 56.811Z" fill="black"/>
<path d="M177.314 104.813C176.63 115.757 168.332 124.145 168.332 124.145C168.332 124.145 161.142 114.791 161.825 103.847C162.508 92.9036 170.807 84.5152 170.807 84.5152C170.807 84.5152 177.997 93.8698 177.314 104.813Z" fill="#3E3A97"/>
<path d="M90.8113 35.63C100.091 41.4777 103.476 52.7787 103.476 52.7787C103.476 52.7787 91.8151 54.5985 82.5349 48.7507C73.2548 42.903 69.8699 31.6021 69.8699 31.6021C69.8699 31.6021 81.5312 29.7822 90.8113 35.63Z" fill="#3E3A97"/>
<path d="M70.0873 169.048C79.3675 174.896 82.7523 186.197 82.7523 186.197C82.7523 186.197 71.0911 188.017 61.8109 182.169C52.5308 176.321 49.1459 165.02 49.1459 165.02C49.1459 165.02 60.8072 163.2 70.0873 169.048Z" fill="#3E3A97"/>
<path d="M119.459 220.222C128.739 226.07 132.124 237.371 132.124 237.371C132.124 237.371 120.463 239.191 111.183 233.343C101.903 227.495 98.5179 216.194 98.5179 216.194C98.5179 216.194 110.179 214.374 119.459 220.222Z" fill="#3E3A97"/>
<path d="M258.749 55.1346C255.95 65.7367 246.179 72.353 246.179 72.353C246.179 72.353 240.945 61.7799 243.744 51.1778C246.542 40.5757 256.314 33.9594 256.314 33.9594C256.314 33.9594 261.547 44.5325 258.749 55.1346Z" fill="#3E3A97"/>
<path d="M347.03 63.4013C343.741 73.8617 333.672 80.0162 333.672 80.0162C333.672 80.0162 328.936 69.2111 332.226 58.7507C335.515 48.2903 345.584 42.1358 345.584 42.1358C345.584 42.1358 350.32 52.9409 347.03 63.4013Z" fill="#3E3A97"/>
<path d="M442.449 179.821C436.49 189.027 425.145 192.279 425.145 192.279C425.145 192.279 423.46 180.603 429.419 171.396C435.377 162.19 446.723 158.938 446.723 158.938C446.723 158.938 448.407 170.614 442.449 179.821Z" fill="#3E3A97"/>
</g>
<defs>
<clipPath id="clip0_11_511">
<rect width="484" height="426" fill="white"/>
</clipPath>
</defs>
</svg>
